<svg width="136" height="136" viewBox="0 0 136 136" fill="none" xmlns="http://www.w3.org/2000/svg">
<circle cx="68" cy="68" r="66.5" fill="#A4C8F3" stroke="#CE1A1D" stroke-width="3"/>
<circle cx="68" cy="68" r="53" fill="#FFE086"/>
<path d="M50.0897 46C50.3777 46.992 50.6577 47.992 50.9297 49C51.2177 49.992 51.4977 50.992 51.7697 52C52.0577 52.992 52.3457 53.992 52.6337 55C52.9217 55.992 53.2017 56.992 53.4737 58C53.7617 58.992 54.0417 59.992 54.3137 61C54.6017 61.992 54.8897 62.992 55.1777 64H44.4737L44.0657 61.648C44.0017 61.648 43.9457 61.648 43.8977 61.648C43.8497 61.648 43.7937 61.648 43.7297 61.648H41.0897C41.0417 61.648 40.9937 61.648 40.9457 61.648C40.8977 61.648 40.8497 61.648 40.8017 61.648L40.3937 64H30.1457C30.4337 62.992 30.7137 61.992 30.9857 61C31.2737 59.992 31.5537 58.992 31.8257 58C32.1137 56.992 32.3937 55.992 32.6657 55C32.9537 53.992 33.2337 52.992 33.5057 52C33.7937 50.992 34.0737 49.992 34.3457 49C34.6337 47.992 34.9137 46.992 35.1857 46H50.0897ZM41.0897 59.944C41.0897 59.96 41.0897 59.968 41.0897 59.968C41.0897 59.968 41.0977 59.968 41.1137 59.968H43.7537C43.7697 59.968 43.7777 59.968 43.7777 59.968C43.7777 59.952 43.7777 59.944 43.7777 59.944C43.7777 59.944 43.7457 59.752 43.6817 59.368C43.6177 58.968 43.5297 58.472 43.4177 57.88C43.3217 57.272 43.2177 56.632 43.1057 55.96C42.9937 55.272 42.8897 54.624 42.7937 54.016C42.6977 53.408 42.6097 52.912 42.5297 52.528C42.4657 52.144 42.4337 51.952 42.4337 51.952C42.4337 51.952 42.4257 51.952 42.4097 51.952C42.4097 51.952 42.3777 52.144 42.3137 52.528C42.2497 52.912 42.1617 53.408 42.0497 54.016C41.9537 54.624 41.8497 55.272 41.7377 55.96C41.6257 56.632 41.5217 57.272 41.4257 57.88C41.3297 58.472 41.2497 58.968 41.1857 59.368C41.1217 59.752 41.0897 59.944 41.0897 59.944ZM32.8277 96C32.8277 94.048 32.8277 92.104 32.8277 90.168C32.8277 88.216 32.8277 86.272 32.8277 84.336C32.8277 83.28 32.8277 82.224 32.8277 81.168C32.8277 80.112 32.8277 79.056 32.8277 78H41.1317C41.1317 78.88 41.1317 79.76 41.1317 80.64C41.1317 81.504 41.1317 82.368 41.1317 83.232C41.1317 84.096 41.1317 84.968 41.1317 85.848C41.1317 86.712 41.1317 87.584 41.1317 88.464C41.1317 88.464 41.1317 88.472 41.1317 88.488C41.1317 88.488 41.1317 88.496 41.1317 88.512C41.1317 88.512 41.1317 88.52 41.1317 88.536C41.1317 88.632 41.1317 88.816 41.1317 89.088C41.1317 89.36 41.1317 89.696 41.1317 90.096C41.1317 90.656 41.1317 91.296 41.1317 92.016C41.1317 92.72 41.1317 93.424 41.1317 94.128C41.1317 94.832 41.1317 95.456 41.1317 96H32.8277ZM49.4597 88.128C49.4437 88.144 49.4357 88.16 49.4357 88.176C49.4357 88.176 49.4437 88.184 49.4597 88.2L54.0677 96H44.3957C44.0437 95.168 43.6837 94.344 43.3157 93.528C42.9637 92.712 42.6037 91.896 42.2357 91.08C41.8837 90.248 41.5237 89.424 41.1557 88.608C41.1557 88.592 41.1477 88.584 41.1317 88.584C41.1317 88.568 41.1317 88.56 41.1317 88.56C41.1477 88.544 41.1557 88.536 41.1557 88.536C41.1557 88.52 41.1557 88.512 41.1557 88.512L44.5157 81.12H53.9237L49.4597 88.128ZM54.273 96C54.273 95.264 54.273 94.536 54.273 93.816C54.273 93.08 54.273 92.352 54.273 91.632C54.273 90.896 54.273 90.168 54.273 89.448C54.273 89.144 54.273 88.84 54.273 88.536C54.273 88.232 54.273 87.928 54.273 87.624C55.201 87.624 56.121 87.624 57.033 87.624C57.961 87.624 58.889 87.624 59.817 87.624C60.745 87.624 61.665 87.624 62.577 87.624C62.577 88.552 62.577 89.48 62.577 90.408C62.577 91.336 62.577 92.272 62.577 93.216C62.577 94.144 62.577 95.072 62.577 96H54.273ZM54.273 87.624C54.273 86.536 54.273 85.448 54.273 84.36C54.273 83.272 54.273 82.192 54.273 81.12H62.577C62.577 81.648 62.577 82.176 62.577 82.704C62.577 83.232 62.577 83.76 62.577 84.288C62.577 84.816 62.577 85.344 62.577 85.872C62.577 85.872 62.569 85.88 62.553 85.896C61.177 86.184 59.793 86.472 58.401 86.76C57.025 87.048 55.649 87.336 54.273 87.624ZM77.3068 96C77.3068 95.136 77.3068 94.28 77.3068 93.432C77.3068 92.568 77.3068 91.712 77.3068 90.864C77.3068 90 77.3068 89.144 77.3068 88.296C77.3068 87.992 77.2268 87.728 77.0668 87.504C76.9068 87.28 76.6908 87.096 76.4188 86.952C76.1468 86.808 75.8428 86.704 75.5068 86.64C75.1708 86.56 74.8188 86.52 74.4508 86.52C73.5228 86.52 72.8268 86.704 72.3628 87.072C71.9148 87.44 71.6908 87.848 71.6908 88.296C71.6908 88.632 71.7868 88.936 71.9788 89.208C72.1868 89.48 72.4908 89.704 72.8908 89.88C73.3068 90.04 73.8268 90.12 74.4508 90.12C75.1228 90.12 75.7228 90 76.2508 89.76C76.7788 89.52 77.1228 89.128 77.2828 88.584L75.3628 96C74.8508 96.128 74.3628 96.216 73.8988 96.264C73.4348 96.328 72.8988 96.36 72.2908 96.36C71.0588 96.36 69.8988 96.192 68.8108 95.856C67.7228 95.504 66.7628 94.992 65.9308 94.32C65.1148 93.648 64.4668 92.832 63.9868 91.872C63.5228 90.912 63.2908 89.816 63.2908 88.584C63.2908 87.528 63.4588 86.584 63.7948 85.752C64.1308 84.904 64.5868 84.168 65.1628 83.544C65.7548 82.92 66.4348 82.4 67.2028 81.984C67.9708 81.568 68.7868 81.264 69.6508 81.072C70.5308 80.864 71.4188 80.76 72.3148 80.76C72.6828 80.76 73.0588 80.776 73.4428 80.808C73.8268 80.84 74.2028 80.888 74.5708 80.952C74.9388 81.016 75.2828 81.104 75.6028 81.216C75.9388 81.328 76.2428 81.464 76.5148 81.624C76.8028 81.784 77.0508 81.968 77.2588 82.176C77.2748 82.192 77.2828 82.2 77.2828 82.2C77.2988 82.184 77.3068 82.168 77.3068 82.152C77.3068 81.512 77.3068 80.824 77.3068 80.088C77.3068 79.336 77.3068 78.64 77.3068 78H85.6108C85.6108 79.536 85.6108 81.08 85.6108 82.632C85.6108 84.168 85.6108 85.704 85.6108 87.24C85.6108 88.696 85.6108 90.152 85.6108 91.608C85.6108 93.064 85.6108 94.528 85.6108 96H77.3068ZM86.3298 85.872C86.3298 84.96 86.5858 84.168 87.0978 83.496C87.6258 82.824 88.3378 82.264 89.2338 81.816C90.1298 81.352 91.1458 81.008 92.2818 80.784C93.4178 80.56 94.6018 80.448 95.8338 80.448C97.3538 80.448 98.7618 80.584 100.058 80.856C101.37 81.128 102.554 81.488 103.61 81.936V87.504C103.162 87.168 102.57 86.88 101.834 86.64C101.114 86.4 100.346 86.216 99.5298 86.088C98.7298 85.96 97.9698 85.896 97.2498 85.896C96.7698 85.896 96.3298 85.928 95.9298 85.992C95.5458 86.04 95.2338 86.12 94.9938 86.232C94.7698 86.344 94.6578 86.488 94.6578 86.664C94.6578 86.76 94.6898 86.832 94.7538 86.88C94.8338 86.928 94.9458 86.96 95.0898 86.976C95.2338 86.992 95.4178 87 95.6418 87C96.0098 87 96.3378 87 96.6258 87C96.9138 87 97.2338 87 97.5858 87C98.3858 87 99.1858 87.056 99.9858 87.168C100.802 87.264 101.538 87.464 102.194 87.768C102.866 88.072 103.402 88.512 103.802 89.088C104.202 89.648 104.402 90.392 104.402 91.32C104.402 92.296 104.13 93.128 103.586 93.816C103.058 94.488 102.33 95.04 101.402 95.472C100.49 95.888 99.4578 96.192 98.3058 96.384C97.1698 96.576 95.9858 96.672 94.7538 96.672C93.2978 96.672 91.8578 96.536 90.4338 96.264C89.0258 95.992 87.8178 95.592 86.8098 95.064V89.208C87.2098 89.64 87.7778 90 88.5138 90.288C89.2658 90.56 90.0738 90.768 90.9378 90.912C91.8178 91.04 92.6418 91.104 93.4098 91.104C93.9058 91.104 94.3538 91.08 94.7538 91.032C95.1538 90.968 95.4658 90.88 95.6898 90.768C95.9298 90.64 96.0498 90.48 96.0498 90.288C96.0498 90.208 96.0258 90.152 95.9778 90.12C95.9298 90.088 95.8498 90.064 95.7378 90.048C95.6418 90.032 95.5058 90.024 95.3298 90.024C95.0898 90.024 94.8418 90.024 94.5858 90.024C94.3298 90.024 94.0978 90.024 93.8898 90.024C93.3298 90.024 92.7058 90.008 92.0178 89.976C91.3458 89.928 90.6738 89.84 90.0018 89.712C89.3298 89.568 88.7138 89.352 88.1538 89.064C87.6098 88.76 87.1698 88.352 86.8338 87.84C86.4978 87.312 86.3298 86.656 86.3298 85.872Z" fill="#CE1A1D"/>
<path d="M55.7027 46H74.4467C75.5187 46 76.4067 46.208 77.1107 46.624C77.8147 47.024 78.3427 47.544 78.6947 48.184C79.0627 48.824 79.2467 49.496 79.2467 50.2C79.2467 50.904 79.0627 51.592 78.6947 52.264C78.3267 52.92 77.7827 53.456 77.0627 53.872C76.3427 54.288 75.4467 54.496 74.3747 54.496C74.3747 54.496 74.3667 54.496 74.3507 54.496C74.3507 54.496 74.3507 54.504 74.3507 54.52C74.3667 54.52 74.3747 54.52 74.3747 54.52C75.6707 54.52 76.7427 54.752 77.5907 55.216C78.4387 55.68 79.0707 56.272 79.4867 56.992C79.9027 57.712 80.1107 58.472 80.1107 59.272C80.1107 59.864 79.9907 60.44 79.7507 61C79.5267 61.56 79.1827 62.072 78.7187 62.536C78.2547 62.984 77.6787 63.344 76.9907 63.616C76.3027 63.872 75.5027 64 74.5907 64H55.7027C55.7027 62.912 55.7027 61.832 55.7027 60.76C55.7027 59.672 55.7027 58.584 55.7027 57.496C55.7027 56.408 55.7027 55.328 55.7027 54.256C55.7027 53.168 55.7027 52.08 55.7027 50.992C55.7027 50.16 55.7027 49.328 55.7027 48.496C55.7027 47.664 55.7027 46.832 55.7027 46ZM65.1587 55.456C65.1587 55.632 65.1587 55.808 65.1587 55.984C65.1587 56.16 65.1587 56.336 65.1587 56.512C65.1587 56.64 65.1587 56.768 65.1587 56.896C65.1587 57.008 65.1587 57.12 65.1587 57.232C65.1587 57.344 65.1587 57.456 65.1587 57.568C65.1587 57.584 65.1667 57.592 65.1827 57.592H68.5907C69.0227 57.592 69.3427 57.48 69.5507 57.256C69.7747 57.032 69.8867 56.776 69.8867 56.488C69.8867 56.344 69.8627 56.216 69.8147 56.104C69.7667 55.976 69.6947 55.864 69.5987 55.768C69.5187 55.656 69.4067 55.576 69.2627 55.528C69.1347 55.464 68.9827 55.432 68.8067 55.432H65.1827C65.1827 55.432 65.1747 55.44 65.1587 55.456ZM65.1827 52.072C65.1667 52.072 65.1587 52.08 65.1587 52.096C65.1587 52.192 65.1587 52.304 65.1587 52.432C65.1587 52.544 65.1587 52.664 65.1587 52.792C65.1587 52.904 65.1587 53.024 65.1587 53.152C65.1587 53.328 65.1587 53.512 65.1587 53.704C65.1587 53.88 65.1587 54.048 65.1587 54.208C65.1587 54.224 65.1667 54.232 65.1827 54.232H68.4707C68.7587 54.232 68.9987 54.184 69.1907 54.088C69.3827 53.976 69.5267 53.84 69.6227 53.68C69.7187 53.504 69.7667 53.32 69.7667 53.128C69.7667 52.856 69.6707 52.616 69.4787 52.408C69.3027 52.184 69.0387 52.072 68.6867 52.072H65.1827Z" fill="#FA7F92"/>
<path d="M93.4127 64.72C92.1487 64.72 90.9807 64.64 89.9087 64.48C88.8367 64.32 87.8447 64.088 86.9327 63.784C86.0367 63.48 85.2287 63.112 84.5087 62.68C83.8047 62.248 83.1807 61.76 82.6367 61.216C82.0927 60.672 81.6367 60.08 81.2687 59.44C80.9167 58.784 80.6527 58.088 80.4767 57.352C80.3007 56.616 80.2127 55.84 80.2127 55.024C80.2127 53.696 80.4287 52.504 80.8607 51.448C81.2927 50.392 81.9007 49.48 82.6847 48.712C83.4847 47.944 84.4287 47.304 85.5167 46.792C86.6207 46.28 87.8367 45.904 89.1647 45.664C90.4927 45.408 91.9087 45.28 93.4127 45.28C96.0687 45.28 98.3247 45.6 100.181 46.24C102.037 46.88 103.501 47.8 104.573 49C105.661 50.2 106.341 51.656 106.613 53.368L96.4127 55.024C96.4127 54.656 96.3327 54.344 96.1727 54.088C96.0127 53.816 95.7967 53.6 95.5247 53.44C95.2527 53.28 94.9327 53.16 94.5647 53.08C94.2127 53 93.8287 52.96 93.4127 52.96C92.8367 52.96 92.3247 53.04 91.8767 53.2C91.4287 53.344 91.0687 53.568 90.7967 53.872C90.5407 54.16 90.4127 54.528 90.4127 54.976C90.4127 55.248 90.4607 55.496 90.5567 55.72C90.6527 55.944 90.7887 56.144 90.9647 56.32C91.1407 56.48 91.3487 56.616 91.5887 56.728C91.8447 56.824 92.1247 56.904 92.4287 56.968C92.7327 57.016 93.0607 57.04 93.4127 57.04C94.2607 57.04 94.9727 56.872 95.5487 56.536C96.1247 56.184 96.4127 55.68 96.4127 55.024L106.613 56.056C106.437 57.24 106.045 58.352 105.437 59.392C104.845 60.432 104.013 61.352 102.941 62.152C101.885 62.952 100.565 63.576 98.9807 64.024C97.4127 64.488 95.5567 64.72 93.4127 64.72Z" fill="#0C5DBF"/>
</svg>
